<mxfile host="app.diagrams.net" modified="2021-05-12T06:59:09.896Z" agent="5.0 (Macintosh; Intel Mac OS X 10_15_4) AppleWebKit/537.36 (KHTML, like Gecko) Chrome/90.0.4430.93 Safari/537.36" etag="yoWb-wdpkqmc37PCqbNu" version="14.4.3" type="github" pages="4">
  <diagram id="e0KhCoqcBP7DtmOTXd3O" name="Page-1">
    <mxGraphModel dx="1017" dy="515" grid="1" gridSize="10" guides="1" tooltips="1" connect="1" arrows="1" fold="1" page="1" pageScale="1" pageWidth="827" pageHeight="1169" math="0" shadow="0">
      <root>
        <mxCell id="0" />
        <mxCell id="1" parent="0" />
        <mxCell id="afIanSyURcA2n0YwJ_gP-1" value="Engine" style="whiteSpace=wrap;html=1;aspect=fixed;verticalAlign=top;" vertex="1" parent="1">
          <mxGeometry x="40" y="120" width="360" height="360" as="geometry" />
        </mxCell>
        <mxCell id="afIanSyURcA2n0YwJ_gP-4" style="edgeStyle=orthogonalEdgeStyle;rounded=0;orthogonalLoop=1;jettySize=auto;html=1;entryX=0;entryY=0.5;entryDx=0;entryDy=0;startArrow=none;startFill=0;" edge="1" parent="1" source="afIanSyURcA2n0YwJ_gP-2" target="i1paJqCr93upoOgsonB5-2">
          <mxGeometry relative="1" as="geometry">
            <mxPoint x="600" y="360" as="targetPoint" />
          </mxGeometry>
        </mxCell>
        <mxCell id="afIanSyURcA2n0YwJ_gP-12" value="WebRTC" style="edgeLabel;html=1;align=center;verticalAlign=middle;resizable=0;points=[];" vertex="1" connectable="0" parent="afIanSyURcA2n0YwJ_gP-4">
          <mxGeometry x="-0.0422" relative="1" as="geometry">
            <mxPoint as="offset" />
          </mxGeometry>
        </mxCell>
        <mxCell id="afIanSyURcA2n0YwJ_gP-2" value="RTC Output&lt;br&gt;720p" style="rounded=0;whiteSpace=wrap;html=1;" vertex="1" parent="1">
          <mxGeometry x="280" y="340" width="120" height="60" as="geometry" />
        </mxCell>
        <mxCell id="afIanSyURcA2n0YwJ_gP-7" style="edgeStyle=orthogonalEdgeStyle;rounded=0;orthogonalLoop=1;jettySize=auto;html=1;exitX=1;exitY=0.5;exitDx=0;exitDy=0;entryX=0;entryY=0.5;entryDx=0;entryDy=0;startArrow=none;startFill=0;" edge="1" parent="1" source="afIanSyURcA2n0YwJ_gP-5" target="i1paJqCr93upoOgsonB5-1">
          <mxGeometry relative="1" as="geometry">
            <mxPoint x="530" y="290" as="targetPoint" />
          </mxGeometry>
        </mxCell>
        <mxCell id="afIanSyURcA2n0YwJ_gP-11" value="WebRTC" style="edgeLabel;html=1;align=center;verticalAlign=middle;resizable=0;points=[];" vertex="1" connectable="0" parent="afIanSyURcA2n0YwJ_gP-7">
          <mxGeometry x="0.0078" y="2" relative="1" as="geometry">
            <mxPoint as="offset" />
          </mxGeometry>
        </mxCell>
        <mxCell id="afIanSyURcA2n0YwJ_gP-5" value="RTC Output&lt;br&gt;480p" style="rounded=0;whiteSpace=wrap;html=1;" vertex="1" parent="1">
          <mxGeometry x="280" y="270" width="120" height="60" as="geometry" />
        </mxCell>
        <mxCell id="i1paJqCr93upoOgsonB5-1" value="&lt;span&gt;Client&lt;/span&gt;" style="rounded=0;whiteSpace=wrap;html=1;" vertex="1" parent="1">
          <mxGeometry x="530" y="270" width="120" height="60" as="geometry" />
        </mxCell>
        <mxCell id="i1paJqCr93upoOgsonB5-2" value="&lt;span&gt;Client&lt;/span&gt;" style="rounded=0;whiteSpace=wrap;html=1;" vertex="1" parent="1">
          <mxGeometry x="530" y="340" width="120" height="60" as="geometry" />
        </mxCell>
        <mxCell id="i1paJqCr93upoOgsonB5-4" style="edgeStyle=orthogonalEdgeStyle;rounded=0;orthogonalLoop=1;jettySize=auto;html=1;exitX=1;exitY=0.5;exitDx=0;exitDy=0;entryX=0;entryY=0.5;entryDx=0;entryDy=0;startArrow=none;startFill=0;" edge="1" parent="1" source="i1paJqCr93upoOgsonB5-6">
          <mxGeometry relative="1" as="geometry">
            <mxPoint x="530" y="230" as="targetPoint" />
          </mxGeometry>
        </mxCell>
        <mxCell id="i1paJqCr93upoOgsonB5-5" value="WebRTC" style="edgeLabel;html=1;align=center;verticalAlign=middle;resizable=0;points=[];" vertex="1" connectable="0" parent="i1paJqCr93upoOgsonB5-4">
          <mxGeometry x="0.0078" y="2" relative="1" as="geometry">
            <mxPoint as="offset" />
          </mxGeometry>
        </mxCell>
        <mxCell id="i1paJqCr93upoOgsonB5-6" value="RTC Output&lt;br&gt;480p" style="rounded=0;whiteSpace=wrap;html=1;" vertex="1" parent="1">
          <mxGeometry x="280" y="200" width="120" height="60" as="geometry" />
        </mxCell>
        <mxCell id="i1paJqCr93upoOgsonB5-7" value="Client" style="rounded=0;whiteSpace=wrap;html=1;" vertex="1" parent="1">
          <mxGeometry x="530" y="200" width="120" height="60" as="geometry" />
        </mxCell>
        <mxCell id="i1paJqCr93upoOgsonB5-10" style="edgeStyle=orthogonalEdgeStyle;rounded=0;orthogonalLoop=1;jettySize=auto;html=1;exitX=0.5;exitY=1;exitDx=0;exitDy=0;startArrow=none;startFill=0;" edge="1" parent="1" source="i1paJqCr93upoOgsonB5-8" target="afIanSyURcA2n0YwJ_gP-2">
          <mxGeometry relative="1" as="geometry" />
        </mxCell>
        <mxCell id="i1paJqCr93upoOgsonB5-11" style="edgeStyle=orthogonalEdgeStyle;rounded=0;orthogonalLoop=1;jettySize=auto;html=1;exitX=1;exitY=0.5;exitDx=0;exitDy=0;entryX=0;entryY=0.5;entryDx=0;entryDy=0;startArrow=none;startFill=0;" edge="1" parent="1" source="i1paJqCr93upoOgsonB5-8" target="afIanSyURcA2n0YwJ_gP-5">
          <mxGeometry relative="1" as="geometry" />
        </mxCell>
        <mxCell id="i1paJqCr93upoOgsonB5-12" style="edgeStyle=orthogonalEdgeStyle;rounded=0;orthogonalLoop=1;jettySize=auto;html=1;exitX=0.5;exitY=0;exitDx=0;exitDy=0;entryX=0;entryY=0.5;entryDx=0;entryDy=0;startArrow=none;startFill=0;" edge="1" parent="1" source="i1paJqCr93upoOgsonB5-8" target="i1paJqCr93upoOgsonB5-6">
          <mxGeometry relative="1" as="geometry" />
        </mxCell>
        <mxCell id="i1paJqCr93upoOgsonB5-8" value="Source" style="whiteSpace=wrap;html=1;aspect=fixed;" vertex="1" parent="1">
          <mxGeometry x="140" y="260" width="80" height="80" as="geometry" />
        </mxCell>
      </root>
    </mxGraphModel>
  </diagram>
  <diagram id="QxfuwqnUlGdszmK4DW8z" name="Page-2">
    <mxGraphModel dx="1017" dy="515" grid="1" gridSize="10" guides="1" tooltips="1" connect="1" arrows="1" fold="1" page="1" pageScale="1" pageWidth="827" pageHeight="1169" math="0" shadow="0">
      <root>
        <mxCell id="F0JqNYRP7prSnnYJ6r2Z-0" />
        <mxCell id="F0JqNYRP7prSnnYJ6r2Z-1" parent="F0JqNYRP7prSnnYJ6r2Z-0" />
        <mxCell id="6gvZ5CFUi1HgLY4mAEsg-0" value="Engine" style="whiteSpace=wrap;html=1;aspect=fixed;verticalAlign=top;" vertex="1" parent="F0JqNYRP7prSnnYJ6r2Z-1">
          <mxGeometry x="40" y="120" width="360" height="360" as="geometry" />
        </mxCell>
        <mxCell id="6gvZ5CFUi1HgLY4mAEsg-18" style="edgeStyle=orthogonalEdgeStyle;rounded=0;orthogonalLoop=1;jettySize=auto;html=1;entryX=0;entryY=0.5;entryDx=0;entryDy=0;startArrow=none;startFill=0;" edge="1" parent="F0JqNYRP7prSnnYJ6r2Z-1" source="6gvZ5CFUi1HgLY4mAEsg-6" target="6gvZ5CFUi1HgLY4mAEsg-17">
          <mxGeometry relative="1" as="geometry" />
        </mxCell>
        <mxCell id="6gvZ5CFUi1HgLY4mAEsg-19" value="RTP" style="edgeLabel;html=1;align=center;verticalAlign=middle;resizable=0;points=[];" vertex="1" connectable="0" parent="6gvZ5CFUi1HgLY4mAEsg-18">
          <mxGeometry x="0.0556" y="-2" relative="1" as="geometry">
            <mxPoint as="offset" />
          </mxGeometry>
        </mxCell>
        <mxCell id="6gvZ5CFUi1HgLY4mAEsg-6" value="RTC Output&lt;br&gt;(Simulcast/SVC)" style="rounded=0;whiteSpace=wrap;html=1;" vertex="1" parent="F0JqNYRP7prSnnYJ6r2Z-1">
          <mxGeometry x="280" y="270" width="120" height="60" as="geometry" />
        </mxCell>
        <mxCell id="6gvZ5CFUi1HgLY4mAEsg-7" value="&lt;span&gt;Client&lt;/span&gt;" style="rounded=0;whiteSpace=wrap;html=1;" vertex="1" parent="F0JqNYRP7prSnnYJ6r2Z-1">
          <mxGeometry x="700" y="270" width="120" height="60" as="geometry" />
        </mxCell>
        <mxCell id="6gvZ5CFUi1HgLY4mAEsg-8" value="&lt;span&gt;Client&lt;/span&gt;" style="rounded=0;whiteSpace=wrap;html=1;" vertex="1" parent="F0JqNYRP7prSnnYJ6r2Z-1">
          <mxGeometry x="700" y="360" width="120" height="60" as="geometry" />
        </mxCell>
        <mxCell id="6gvZ5CFUi1HgLY4mAEsg-12" value="Client" style="rounded=0;whiteSpace=wrap;html=1;" vertex="1" parent="F0JqNYRP7prSnnYJ6r2Z-1">
          <mxGeometry x="700" y="180" width="120" height="60" as="geometry" />
        </mxCell>
        <mxCell id="6gvZ5CFUi1HgLY4mAEsg-14" style="edgeStyle=orthogonalEdgeStyle;rounded=0;orthogonalLoop=1;jettySize=auto;html=1;exitX=1;exitY=0.5;exitDx=0;exitDy=0;entryX=0;entryY=0.5;entryDx=0;entryDy=0;startArrow=none;startFill=0;" edge="1" parent="F0JqNYRP7prSnnYJ6r2Z-1" source="6gvZ5CFUi1HgLY4mAEsg-16" target="6gvZ5CFUi1HgLY4mAEsg-6">
          <mxGeometry relative="1" as="geometry" />
        </mxCell>
        <mxCell id="6gvZ5CFUi1HgLY4mAEsg-16" value="Source" style="whiteSpace=wrap;html=1;aspect=fixed;" vertex="1" parent="F0JqNYRP7prSnnYJ6r2Z-1">
          <mxGeometry x="140" y="260" width="80" height="80" as="geometry" />
        </mxCell>
        <mxCell id="6gvZ5CFUi1HgLY4mAEsg-20" style="edgeStyle=orthogonalEdgeStyle;rounded=0;orthogonalLoop=1;jettySize=auto;html=1;entryX=0;entryY=0.5;entryDx=0;entryDy=0;startArrow=none;startFill=0;" edge="1" parent="F0JqNYRP7prSnnYJ6r2Z-1" source="6gvZ5CFUi1HgLY4mAEsg-17" target="6gvZ5CFUi1HgLY4mAEsg-7">
          <mxGeometry relative="1" as="geometry" />
        </mxCell>
        <mxCell id="6gvZ5CFUi1HgLY4mAEsg-24" value="480P" style="edgeLabel;html=1;align=center;verticalAlign=middle;resizable=0;points=[];" vertex="1" connectable="0" parent="6gvZ5CFUi1HgLY4mAEsg-20">
          <mxGeometry x="-0.3111" y="2" relative="1" as="geometry">
            <mxPoint as="offset" />
          </mxGeometry>
        </mxCell>
        <mxCell id="6gvZ5CFUi1HgLY4mAEsg-21" style="edgeStyle=orthogonalEdgeStyle;rounded=0;orthogonalLoop=1;jettySize=auto;html=1;exitX=0.5;exitY=0;exitDx=0;exitDy=0;entryX=0;entryY=0.5;entryDx=0;entryDy=0;startArrow=none;startFill=0;" edge="1" parent="F0JqNYRP7prSnnYJ6r2Z-1" source="6gvZ5CFUi1HgLY4mAEsg-17" target="6gvZ5CFUi1HgLY4mAEsg-12">
          <mxGeometry relative="1" as="geometry" />
        </mxCell>
        <mxCell id="6gvZ5CFUi1HgLY4mAEsg-23" value="480P" style="edgeLabel;html=1;align=center;verticalAlign=middle;resizable=0;points=[];" vertex="1" connectable="0" parent="6gvZ5CFUi1HgLY4mAEsg-21">
          <mxGeometry x="0.228" y="1" relative="1" as="geometry">
            <mxPoint as="offset" />
          </mxGeometry>
        </mxCell>
        <mxCell id="6gvZ5CFUi1HgLY4mAEsg-22" style="edgeStyle=orthogonalEdgeStyle;rounded=0;orthogonalLoop=1;jettySize=auto;html=1;exitX=0.5;exitY=1;exitDx=0;exitDy=0;entryX=0;entryY=0.5;entryDx=0;entryDy=0;startArrow=none;startFill=0;" edge="1" parent="F0JqNYRP7prSnnYJ6r2Z-1" source="6gvZ5CFUi1HgLY4mAEsg-17" target="6gvZ5CFUi1HgLY4mAEsg-8">
          <mxGeometry relative="1" as="geometry" />
        </mxCell>
        <mxCell id="6gvZ5CFUi1HgLY4mAEsg-25" value="720P" style="edgeLabel;html=1;align=center;verticalAlign=middle;resizable=0;points=[];" vertex="1" connectable="0" parent="6gvZ5CFUi1HgLY4mAEsg-22">
          <mxGeometry x="0.2106" y="-2" relative="1" as="geometry">
            <mxPoint as="offset" />
          </mxGeometry>
        </mxCell>
        <mxCell id="6gvZ5CFUi1HgLY4mAEsg-17" value="SFU" style="whiteSpace=wrap;html=1;aspect=fixed;" vertex="1" parent="F0JqNYRP7prSnnYJ6r2Z-1">
          <mxGeometry x="480" y="260" width="80" height="80" as="geometry" />
        </mxCell>
      </root>
    </mxGraphModel>
  </diagram>
  <diagram id="ohLhQePljr7HN7aBGfft" name="Page-3">
    <mxGraphModel dx="1017" dy="1684" grid="1" gridSize="10" guides="1" tooltips="1" connect="1" arrows="1" fold="1" page="1" pageScale="1" pageWidth="827" pageHeight="1169" math="0" shadow="0">
      <root>
        <mxCell id="wOfz93NqM2FlHg3GOO0s-0" />
        <mxCell id="wOfz93NqM2FlHg3GOO0s-1" parent="wOfz93NqM2FlHg3GOO0s-0" />
        <mxCell id="wOfz93NqM2FlHg3GOO0s-2" value="Engine" style="whiteSpace=wrap;html=1;aspect=fixed;verticalAlign=bottom;" vertex="1" parent="wOfz93NqM2FlHg3GOO0s-1">
          <mxGeometry x="120" y="120" width="280" height="280" as="geometry" />
        </mxCell>
        <mxCell id="Z2lyDjsZnk19jwfJzJEB-2" style="edgeStyle=orthogonalEdgeStyle;rounded=0;orthogonalLoop=1;jettySize=auto;html=1;entryX=0.5;entryY=0;entryDx=0;entryDy=0;startArrow=none;startFill=0;" edge="1" parent="wOfz93NqM2FlHg3GOO0s-1" source="wOfz93NqM2FlHg3GOO0s-3" target="Z2lyDjsZnk19jwfJzJEB-1">
          <mxGeometry relative="1" as="geometry" />
        </mxCell>
        <mxCell id="wOfz93NqM2FlHg3GOO0s-3" value="医百会议" style="whiteSpace=wrap;html=1;aspect=fixed;" vertex="1" parent="wOfz93NqM2FlHg3GOO0s-1">
          <mxGeometry x="220" y="-200" width="80" height="80" as="geometry" />
        </mxCell>
        <mxCell id="Z2lyDjsZnk19jwfJzJEB-3" style="edgeStyle=orthogonalEdgeStyle;rounded=0;orthogonalLoop=1;jettySize=auto;html=1;startArrow=none;startFill=0;" edge="1" parent="wOfz93NqM2FlHg3GOO0s-1" source="Z2lyDjsZnk19jwfJzJEB-1" target="wOfz93NqM2FlHg3GOO0s-2">
          <mxGeometry relative="1" as="geometry" />
        </mxCell>
        <mxCell id="Z2lyDjsZnk19jwfJzJEB-4" value="720p" style="edgeLabel;html=1;align=center;verticalAlign=middle;resizable=0;points=[];" vertex="1" connectable="0" parent="Z2lyDjsZnk19jwfJzJEB-3">
          <mxGeometry x="-0.0858" y="1" relative="1" as="geometry">
            <mxPoint as="offset" />
          </mxGeometry>
        </mxCell>
        <mxCell id="Z2lyDjsZnk19jwfJzJEB-13" style="edgeStyle=orthogonalEdgeStyle;rounded=0;orthogonalLoop=1;jettySize=auto;html=1;entryX=0.5;entryY=0;entryDx=0;entryDy=0;startArrow=none;startFill=0;" edge="1" parent="wOfz93NqM2FlHg3GOO0s-1" source="Z2lyDjsZnk19jwfJzJEB-1" target="Z2lyDjsZnk19jwfJzJEB-5">
          <mxGeometry relative="1" as="geometry" />
        </mxCell>
        <mxCell id="Z2lyDjsZnk19jwfJzJEB-14" value="预览&lt;br&gt;480p" style="edgeLabel;html=1;align=center;verticalAlign=middle;resizable=0;points=[];" vertex="1" connectable="0" parent="Z2lyDjsZnk19jwfJzJEB-13">
          <mxGeometry x="0.4715" y="1" relative="1" as="geometry">
            <mxPoint as="offset" />
          </mxGeometry>
        </mxCell>
        <mxCell id="Z2lyDjsZnk19jwfJzJEB-1" value="SFU" style="whiteSpace=wrap;html=1;aspect=fixed;" vertex="1" parent="wOfz93NqM2FlHg3GOO0s-1">
          <mxGeometry x="200" y="-80" width="120" height="120" as="geometry" />
        </mxCell>
        <mxCell id="Z2lyDjsZnk19jwfJzJEB-5" value="Client" style="whiteSpace=wrap;html=1;aspect=fixed;" vertex="1" parent="wOfz93NqM2FlHg3GOO0s-1">
          <mxGeometry x="560" y="210" width="80" height="80" as="geometry" />
        </mxCell>
        <mxCell id="Z2lyDjsZnk19jwfJzJEB-11" style="edgeStyle=orthogonalEdgeStyle;rounded=0;orthogonalLoop=1;jettySize=auto;html=1;entryX=0;entryY=0.5;entryDx=0;entryDy=0;startArrow=none;startFill=0;" edge="1" parent="wOfz93NqM2FlHg3GOO0s-1" source="Z2lyDjsZnk19jwfJzJEB-7" target="Z2lyDjsZnk19jwfJzJEB-5">
          <mxGeometry relative="1" as="geometry" />
        </mxCell>
        <mxCell id="Z2lyDjsZnk19jwfJzJEB-12" value="PVW" style="edgeLabel;html=1;align=center;verticalAlign=middle;resizable=0;points=[];" vertex="1" connectable="0" parent="Z2lyDjsZnk19jwfJzJEB-11">
          <mxGeometry x="0.0583" relative="1" as="geometry">
            <mxPoint as="offset" />
          </mxGeometry>
        </mxCell>
        <mxCell id="Z2lyDjsZnk19jwfJzJEB-7" value="Pipeline" style="rounded=0;whiteSpace=wrap;html=1;" vertex="1" parent="wOfz93NqM2FlHg3GOO0s-1">
          <mxGeometry x="200" y="220" width="120" height="60" as="geometry" />
        </mxCell>
        <mxCell id="Z2lyDjsZnk19jwfJzJEB-10" style="edgeStyle=orthogonalEdgeStyle;rounded=0;orthogonalLoop=1;jettySize=auto;html=1;exitX=0.5;exitY=1;exitDx=0;exitDy=0;entryX=0.5;entryY=0;entryDx=0;entryDy=0;startArrow=none;startFill=0;" edge="1" parent="wOfz93NqM2FlHg3GOO0s-1" source="Z2lyDjsZnk19jwfJzJEB-9" target="Z2lyDjsZnk19jwfJzJEB-7">
          <mxGeometry relative="1" as="geometry" />
        </mxCell>
        <mxCell id="Z2lyDjsZnk19jwfJzJEB-9" value="RTC input" style="whiteSpace=wrap;html=1;aspect=fixed;" vertex="1" parent="wOfz93NqM2FlHg3GOO0s-1">
          <mxGeometry x="220" y="120" width="80" height="80" as="geometry" />
        </mxCell>
      </root>
    </mxGraphModel>
  </diagram>
  <diagram id="QMIHP6Ho8kLgs-n6zRjX" name="Page-4">
    <mxGraphModel dx="1017" dy="1684" grid="1" gridSize="10" guides="1" tooltips="1" connect="1" arrows="1" fold="1" page="1" pageScale="1" pageWidth="827" pageHeight="1169" math="0" shadow="0">
      <root>
        <mxCell id="luQHSdQJgnnHShFQklJu-0" />
        <mxCell id="luQHSdQJgnnHShFQklJu-1" parent="luQHSdQJgnnHShFQklJu-0" />
        <mxCell id="luQHSdQJgnnHShFQklJu-2" value="Engine" style="whiteSpace=wrap;html=1;aspect=fixed;verticalAlign=bottom;" vertex="1" parent="luQHSdQJgnnHShFQklJu-1">
          <mxGeometry x="120" y="120" width="280" height="280" as="geometry" />
        </mxCell>
        <mxCell id="luQHSdQJgnnHShFQklJu-3" style="edgeStyle=orthogonalEdgeStyle;rounded=0;orthogonalLoop=1;jettySize=auto;html=1;entryX=0.5;entryY=0;entryDx=0;entryDy=0;startArrow=none;startFill=0;" edge="1" parent="luQHSdQJgnnHShFQklJu-1" source="luQHSdQJgnnHShFQklJu-4" target="luQHSdQJgnnHShFQklJu-9">
          <mxGeometry relative="1" as="geometry" />
        </mxCell>
        <mxCell id="luQHSdQJgnnHShFQklJu-4" value="医百会议" style="whiteSpace=wrap;html=1;aspect=fixed;" vertex="1" parent="luQHSdQJgnnHShFQklJu-1">
          <mxGeometry x="220" y="-200" width="80" height="80" as="geometry" />
        </mxCell>
        <mxCell id="luQHSdQJgnnHShFQklJu-5" style="edgeStyle=orthogonalEdgeStyle;rounded=0;orthogonalLoop=1;jettySize=auto;html=1;startArrow=none;startFill=0;" edge="1" parent="luQHSdQJgnnHShFQklJu-1" source="luQHSdQJgnnHShFQklJu-9" target="luQHSdQJgnnHShFQklJu-2">
          <mxGeometry relative="1" as="geometry" />
        </mxCell>
        <mxCell id="luQHSdQJgnnHShFQklJu-6" value="720p" style="edgeLabel;html=1;align=center;verticalAlign=middle;resizable=0;points=[];" vertex="1" connectable="0" parent="luQHSdQJgnnHShFQklJu-5">
          <mxGeometry x="-0.0858" y="1" relative="1" as="geometry">
            <mxPoint as="offset" />
          </mxGeometry>
        </mxCell>
        <mxCell id="luQHSdQJgnnHShFQklJu-7" style="edgeStyle=orthogonalEdgeStyle;rounded=0;orthogonalLoop=1;jettySize=auto;html=1;entryX=0.5;entryY=0;entryDx=0;entryDy=0;startArrow=none;startFill=0;exitX=1;exitY=0.5;exitDx=0;exitDy=0;" edge="1" parent="luQHSdQJgnnHShFQklJu-1" source="ZCE0OZGiupz93xoFD5wG-0" target="luQHSdQJgnnHShFQklJu-10">
          <mxGeometry relative="1" as="geometry">
            <mxPoint x="360" y="20" as="sourcePoint" />
          </mxGeometry>
        </mxCell>
        <mxCell id="luQHSdQJgnnHShFQklJu-8" value="预览" style="edgeLabel;html=1;align=center;verticalAlign=middle;resizable=0;points=[];" vertex="1" connectable="0" parent="luQHSdQJgnnHShFQklJu-7">
          <mxGeometry x="0.4715" y="1" relative="1" as="geometry">
            <mxPoint x="-84" y="1" as="offset" />
          </mxGeometry>
        </mxCell>
        <mxCell id="luQHSdQJgnnHShFQklJu-9" value="SFU" style="whiteSpace=wrap;html=1;aspect=fixed;" vertex="1" parent="luQHSdQJgnnHShFQklJu-1">
          <mxGeometry x="200" y="-80" width="120" height="120" as="geometry" />
        </mxCell>
        <mxCell id="luQHSdQJgnnHShFQklJu-10" value="Client" style="whiteSpace=wrap;html=1;aspect=fixed;" vertex="1" parent="luQHSdQJgnnHShFQklJu-1">
          <mxGeometry x="560" y="210" width="80" height="80" as="geometry" />
        </mxCell>
        <mxCell id="luQHSdQJgnnHShFQklJu-11" style="edgeStyle=orthogonalEdgeStyle;rounded=0;orthogonalLoop=1;jettySize=auto;html=1;entryX=0;entryY=0.5;entryDx=0;entryDy=0;startArrow=none;startFill=0;" edge="1" parent="luQHSdQJgnnHShFQklJu-1" source="luQHSdQJgnnHShFQklJu-13" target="luQHSdQJgnnHShFQklJu-10">
          <mxGeometry relative="1" as="geometry" />
        </mxCell>
        <mxCell id="luQHSdQJgnnHShFQklJu-12" value="PVW" style="edgeLabel;html=1;align=center;verticalAlign=middle;resizable=0;points=[];" vertex="1" connectable="0" parent="luQHSdQJgnnHShFQklJu-11">
          <mxGeometry x="0.0583" relative="1" as="geometry">
            <mxPoint as="offset" />
          </mxGeometry>
        </mxCell>
        <mxCell id="luQHSdQJgnnHShFQklJu-13" value="Pipeline" style="rounded=0;whiteSpace=wrap;html=1;" vertex="1" parent="luQHSdQJgnnHShFQklJu-1">
          <mxGeometry x="200" y="220" width="120" height="60" as="geometry" />
        </mxCell>
        <mxCell id="luQHSdQJgnnHShFQklJu-14" style="edgeStyle=orthogonalEdgeStyle;rounded=0;orthogonalLoop=1;jettySize=auto;html=1;exitX=0.5;exitY=1;exitDx=0;exitDy=0;entryX=0.5;entryY=0;entryDx=0;entryDy=0;startArrow=none;startFill=0;" edge="1" parent="luQHSdQJgnnHShFQklJu-1" source="luQHSdQJgnnHShFQklJu-15" target="luQHSdQJgnnHShFQklJu-13">
          <mxGeometry relative="1" as="geometry" />
        </mxCell>
        <mxCell id="ZCE0OZGiupz93xoFD5wG-1" style="edgeStyle=orthogonalEdgeStyle;rounded=0;orthogonalLoop=1;jettySize=auto;html=1;exitX=1;exitY=0.5;exitDx=0;exitDy=0;entryX=0;entryY=0.5;entryDx=0;entryDy=0;startArrow=none;startFill=0;" edge="1" parent="luQHSdQJgnnHShFQklJu-1" source="luQHSdQJgnnHShFQklJu-15" target="ZCE0OZGiupz93xoFD5wG-0">
          <mxGeometry relative="1" as="geometry" />
        </mxCell>
        <mxCell id="luQHSdQJgnnHShFQklJu-15" value="RTC input" style="whiteSpace=wrap;html=1;aspect=fixed;" vertex="1" parent="luQHSdQJgnnHShFQklJu-1">
          <mxGeometry x="220" y="120" width="80" height="80" as="geometry" />
        </mxCell>
        <mxCell id="ZCE0OZGiupz93xoFD5wG-0" value="RTC output&lt;br&gt;480p" style="whiteSpace=wrap;html=1;aspect=fixed;" vertex="1" parent="luQHSdQJgnnHShFQklJu-1">
          <mxGeometry x="320" y="120" width="80" height="80" as="geometry" />
        </mxCell>
      </root>
    </mxGraphModel>
  </diagram>
</mxfile>
